<mxfile host="www.draw.io" modified="2020-02-03T17:50:36.527Z" agent="Mozilla/5.0 (Macintosh; Intel Mac OS X 10_15_3) AppleWebKit/537.36 (KHTML, like Gecko) Chrome/79.0.3945.130 Safari/537.36" etag="OEfY4C7EijqW4LzEyuCg" version="12.6.4" type="github">
  <diagram id="nUsf4HkAhkYA_3w35MGO" name="Page-1">
    <mxGraphModel dx="817" dy="692" grid="1" gridSize="10" guides="1" tooltips="1" connect="1" arrows="1" fold="1" page="1" pageScale="1" pageWidth="850" pageHeight="1100" math="0" shadow="0">
      <root>
        <mxCell id="0"/>
        <mxCell id="1" parent="0"/>
        <mxCell id="M4U7ziaGGa-sRwcLIw2--34" value="&lt;p style=&quot;margin: 0px ; margin-top: 4px ; text-align: center&quot;&gt;&lt;i&gt;&amp;lt;&amp;lt;&lt;/i&gt;&lt;span style=&quot;color: rgb(33 , 33 , 33) ; font-family: , &amp;#34;arial&amp;#34; ; font-size: 15.6px ; white-space: normal ; background-color: rgb(255 , 255 , 255)&quot;&gt;Sousmate&lt;/span&gt;&lt;i&gt;&amp;gt;&amp;gt;&lt;/i&gt;&lt;br&gt;&lt;b&gt;Interface&lt;/b&gt;&lt;/p&gt;&lt;hr size=&quot;1&quot;&gt;&lt;p style=&quot;margin: 0px ; margin-left: 4px&quot;&gt;&lt;br&gt;&lt;/p&gt;" style="verticalAlign=top;align=left;overflow=fill;fontSize=12;fontFamily=Helvetica;html=1;" parent="1" vertex="1">
          <mxGeometry x="220" y="300" width="260" height="440" as="geometry"/>
        </mxCell>
        <mxCell id="M4U7ziaGGa-sRwcLIw2--35" value="&lt;span style=&quot;color: rgb(66 , 65 , 62) ; font-family: &amp;#34;opensans&amp;#34; ; font-size: 16px ; background-color: rgb(255 , 255 , 255)&quot;&gt;Barbeque Chicken&lt;/span&gt;" style="ellipse;whiteSpace=wrap;html=1;" parent="1" vertex="1">
          <mxGeometry x="300" y="420" width="120" height="50" as="geometry"/>
        </mxCell>
        <mxCell id="M4U7ziaGGa-sRwcLIw2--36" value="&lt;span style=&quot;color: rgb(66 , 65 , 62) ; font-family: &amp;#34;opensans&amp;#34; ; font-size: 16px ; background-color: rgb(255 , 255 , 255)&quot;&gt;Simple Salad&lt;/span&gt;" style="ellipse;whiteSpace=wrap;html=1;" parent="1" vertex="1">
          <mxGeometry x="305" y="495" width="110" height="50" as="geometry"/>
        </mxCell>
        <mxCell id="M4U7ziaGGa-sRwcLIw2--53" style="edgeStyle=orthogonalEdgeStyle;rounded=0;orthogonalLoop=1;jettySize=auto;html=1;exitX=1;exitY=0.3333333333333333;exitDx=0;exitDy=0;exitPerimeter=0;entryX=0;entryY=0.5;entryDx=0;entryDy=0;" parent="1" source="M4U7ziaGGa-sRwcLIw2--39" target="M4U7ziaGGa-sRwcLIw2--43" edge="1">
          <mxGeometry relative="1" as="geometry"/>
        </mxCell>
        <mxCell id="M4U7ziaGGa-sRwcLIw2--39" value="Actor" style="shape=umlActor;verticalLabelPosition=bottom;labelBackgroundColor=#ffffff;verticalAlign=top;html=1;" parent="1" vertex="1">
          <mxGeometry x="50" y="430" width="30" height="60" as="geometry"/>
        </mxCell>
        <mxCell id="M4U7ziaGGa-sRwcLIw2--49" style="edgeStyle=orthogonalEdgeStyle;rounded=0;orthogonalLoop=1;jettySize=auto;html=1;exitX=1;exitY=0.5;exitDx=0;exitDy=0;" parent="1" source="M4U7ziaGGa-sRwcLIw2--43" target="M4U7ziaGGa-sRwcLIw2--35" edge="1">
          <mxGeometry relative="1" as="geometry"/>
        </mxCell>
        <mxCell id="M4U7ziaGGa-sRwcLIw2--50" style="edgeStyle=orthogonalEdgeStyle;rounded=0;orthogonalLoop=1;jettySize=auto;html=1;entryX=0;entryY=0.5;entryDx=0;entryDy=0;" parent="1" source="M4U7ziaGGa-sRwcLIw2--43" target="M4U7ziaGGa-sRwcLIw2--36" edge="1">
          <mxGeometry relative="1" as="geometry">
            <Array as="points">
              <mxPoint x="250" y="520"/>
            </Array>
          </mxGeometry>
        </mxCell>
        <mxCell id="M4U7ziaGGa-sRwcLIw2--43" value="&lt;span style=&quot;font-size: 16px ; text-align: left ; white-space: nowrap&quot;&gt;Recipe&lt;/span&gt;" style="ellipse;whiteSpace=wrap;html=1;" parent="1" vertex="1">
          <mxGeometry x="230" y="350" width="80" height="50" as="geometry"/>
        </mxCell>
      </root>
    </mxGraphModel>
  </diagram>
</mxfile>
